<svg width="760" height="109" viewBox="0 0 760 109" fill="none" xmlns="http://www.w3.org/2000/svg">
<g filter="url(#filter0_di_186_2)">
<path d="M199.859 12.6562L195.547 81.4688L174.172 82.4062L174.359 46.125L164.703 75.375H156.453L149.047 49.2188L148.953 79.5938L127.297 80.25L128.234 15.4688L152.328 14.5312L161.891 45.5625L174.641 12.6562H199.859ZM261.594 76.9688L238.344 79.9688L235.531 69.375H224.844L222.5 79.9688L198.594 77.625L217.25 15.1875L243.312 13.875L261.594 76.9688ZM233.844 55.0312L230.281 38.7188L226.812 55.0312H233.844ZM320.188 20.4375L299.469 45.0938L318.5 77.3438L296.75 81.1875L282.5 61.875L281.75 80.25L262.25 81L263.75 13.875L285.594 15.0938L283.906 34.4062L297.5 14.8125L320.188 20.4375ZM368.984 43.125C368.984 45.8438 368.797 48.5625 368.422 51.2812C363.078 51.625 357.766 52.1875 352.484 52.9688C347.203 53.7188 341.922 54.4688 336.641 55.2188C337.453 57.4688 338.719 59.2656 340.438 60.6094C342.188 61.9531 344.266 62.625 346.672 62.625C347.922 62.625 349.281 62.3906 350.75 61.9219C352.25 61.4531 353.734 60.875 355.203 60.1875C356.672 59.4688 358.078 58.7031 359.422 57.8906C360.766 57.0781 361.922 56.3438 362.891 55.6875L360.641 76.9688C359.422 77.9062 358.094 78.7031 356.656 79.3594C355.25 80.0156 353.781 80.5469 352.25 80.9531C350.719 81.3594 349.172 81.6562 347.609 81.8438C346.047 82.0312 344.516 82.125 343.016 82.125C339.922 82.125 337.094 81.7031 334.531 80.8594C331.969 80.0156 329.641 78.8438 327.547 77.3438C325.484 75.8125 323.672 74.0156 322.109 71.9531C320.547 69.8906 319.25 67.6406 318.219 65.2031C317.188 62.7656 316.406 60.1875 315.875 57.4688C315.344 54.75 315.078 52 315.078 49.2188C315.078 46.3125 315.344 43.4062 315.875 40.5C316.406 37.5938 317.203 34.7969 318.266 32.1094C319.359 29.4219 320.719 26.9375 322.344 24.6562C324 22.3438 325.922 20.3281 328.109 18.6094C330.297 16.8906 332.766 15.5469 335.516 14.5781C338.297 13.6094 341.359 13.125 344.703 13.125C347.484 13.125 350.016 13.5156 352.297 14.2969C354.609 15.0469 356.656 16.1094 358.438 17.4844C360.25 18.8281 361.812 20.4375 363.125 22.3125C364.469 24.1875 365.562 26.25 366.406 28.5C367.281 30.7187 367.922 33.0781 368.328 35.5781C368.766 38.0469 368.984 40.5625 368.984 43.125ZM350.234 40.6875C350.234 39.8125 350.141 38.9219 349.953 38.0156C349.766 37.0781 349.453 36.2344 349.016 35.4844C348.609 34.7344 348.062 34.125 347.375 33.6562C346.688 33.1562 345.828 32.9062 344.797 32.9062C343.547 32.9062 342.438 33.25 341.469 33.9375C340.531 34.5938 339.719 35.4375 339.031 36.4688C338.344 37.4688 337.781 38.5625 337.344 39.75C336.906 40.9375 336.578 42.0312 336.359 43.0312L350.234 41.7188V40.6875ZM416.141 15L410.984 78.8438L391.203 79.875V16.3125L416.141 15ZM469.062 14.9062L468.594 34.7812L454.625 35.3438L452.938 78.8438L433.156 79.875L431.375 36.375L417.406 37.125L417.969 15L469.062 14.9062ZM549.594 76.9688L526.344 79.9688L523.531 69.375H512.844L510.5 79.9688L486.594 77.625L505.25 15.1875L531.312 13.875L549.594 76.9688ZM521.844 55.0312L518.281 38.7188L514.812 55.0312H521.844ZM591.688 56.1562L589.719 76.9688L550.25 80.0625L551.75 13.125H576.125L572.656 56.1562H591.688ZM635 56.1562L633.031 76.9688L593.562 80.0625L595.062 13.125H619.438L615.969 56.1562H635Z" fill="#FFDA59"/>
</g>
<g filter="url(#filter1_di_186_2)">
<path d="M68.7916 21.2107V21.2643L68.8069 21.3163L69.8845 25.0957L34.7899 59.699L28.068 60.8216L28.0115 60.8308L27.9596 60.8568L23.399 63.1419L23.3593 63.1617L23.3257 63.1893L19.9053 66.0464L19.8488 66.0923L19.8137 66.1565L16.3948 72.4412L16.3642 72.4947L16.3535 72.5559L15.2134 78.8391L15.2012 78.9018L15.2119 78.966L16.352 86.3917L16.3749 86.5462L16.5001 86.6395L18.7804 88.3525L19.1879 88.6584L19.3665 88.1812L21.076 83.6126L21.079 83.6065L23.8813 75.7418L27.633 73.5929L34.8479 74.7048L42.0368 78.5836L42.5588 81.7252L37.464 95.3393L37.2167 96L37.9036 95.847L43.0351 94.7045L43.1159 94.6862L43.1816 94.6372L47.7422 91.2111L47.7941 91.1699L47.8307 91.1163L50.1095 87.6887L50.1355 87.652L50.1507 87.6107L51.8602 83.0406L51.8846 82.9748V75.4115L51.8602 75.3457L50.2362 71.0065L66.5907 54.618L84.1586 38.1499L92.5731 37.587L92.6342 37.584L92.6891 37.561L98.3899 35.276L98.4754 35.2408L98.5364 35.172L102.526 30.6018L102.541 30.5835L102.557 30.5621L104.837 27.136L104.857 27.1054L104.871 27.0748L106.58 23.0752L106.611 23.0033V15.9952L106.585 15.9279L104.304 10.2152L104.274 10.1418L104.219 10.0867L102.509 8.3737L101.957 7.82002L101.861 8.59547L101.296 13.1274L99.6125 18.1854L96.2989 23.167L92.5609 24.2376L84.7462 21.4402L78.7172 17.0459L79.8009 11.6193L84.3417 1.95135L84.7889 1L83.8365 1.44049L76.4262 4.86809L76.3652 4.89715L76.3164 4.94457L71.7542 9.51623L71.7099 9.56058L71.6825 9.61565L68.8328 15.3283L68.7916 15.4094V21.2123V21.2107Z" fill="#C4C4C4" stroke="#9C9C9C" stroke-width="0.5"/>
<path d="M54.3358 50.3308L60.0519 44.6013L93.147 77.7654L89.1129 81.8078L54.3358 50.3308Z" fill="#C4C4C4" stroke="#737373" stroke-width="0.5"/>
<path d="M39.2193 18.0049L39.2223 18.008L50.053 32.8609L50.0714 32.8854L50.0912 32.9053L53.5117 36.3329L53.5514 36.3726L53.6017 36.4002L60.8105 40.2897V42.2474L58.6065 46.1124L55.2486 49.4773L52.1197 51.5682L50.6697 50.1136L47.846 45.0204L47.8109 44.9592L47.7575 44.9133L40.3472 38.6286L40.3258 38.6118L40.3029 38.5965L31.1817 32.8838L31.1725 32.8777L14.6822 23.1899L9.66368 18.1609L8 10.9417L9.64842 5.43553L12.93 2.69468L17.367 1.02753H22.9365L26.2242 2.1257L30.6948 6.04427L39.2193 18.0049Z" fill="#C1833A" stroke="#A8763C" stroke-width="0.5"/>
<path d="M93.6233 77.3876L93.5042 77.4075L93.4172 77.4946L88.8566 82.0648L88.7696 82.152L88.7497 82.2728L88.1804 85.6989L88.156 85.838L88.2293 85.9604L89.9387 88.816L89.9845 88.8894L90.0547 88.9368L100.316 95.792L100.588 95.974L100.809 95.7323L107.079 88.8771L107.287 88.6508L107.11 88.3984L100.269 78.6861L100.223 78.6203L100.154 78.5791L97.3032 76.866L97.1826 76.7926L97.0453 76.8171L93.6233 77.3876V77.3876Z" fill="#C4C4C4" stroke="#818181" stroke-width="0.5"/>
</g>
<g filter="url(#filter2_di_186_2)">
<path d="M719.792 21.2107V21.2643L719.807 21.3163L720.884 25.0957L685.79 59.699L679.068 60.8216L679.012 60.8308L678.96 60.8568L674.399 63.1419L674.359 63.1617L674.326 63.1893L670.905 66.0464L670.849 66.0923L670.814 66.1565L667.395 72.4412L667.364 72.4947L667.354 72.5559L666.213 78.8391L666.201 78.9018L666.212 78.966L667.352 86.3917L667.375 86.5462L667.5 86.6395L669.78 88.3525L670.188 88.6584L670.366 88.1812L672.076 83.6126L672.079 83.6065L674.881 75.7418L678.633 73.5929L685.848 74.7048L693.037 78.5836L693.559 81.7252L688.464 95.3393L688.217 96L688.904 95.847L694.035 94.7045L694.116 94.6862L694.182 94.6372L698.742 91.2111L698.794 91.1699L698.831 91.1163L701.11 87.6887L701.135 87.652L701.151 87.6107L702.86 83.0406L702.885 82.9748V75.4115L702.86 75.3457L701.236 71.0065L717.591 54.618L735.159 38.1499L743.573 37.587L743.634 37.584L743.689 37.561L749.39 35.276L749.475 35.2408L749.536 35.172L753.526 30.6018L753.541 30.5835L753.557 30.5621L755.837 27.136L755.857 27.1054L755.871 27.0748L757.58 23.0752L757.611 23.0033V15.9952L757.585 15.9279L755.304 10.2152L755.274 10.1418L755.219 10.0867L753.509 8.3737L752.957 7.82002L752.861 8.59547L752.296 13.1274L750.613 18.1854L747.299 23.167L743.561 24.2376L735.746 21.4402L729.717 17.0459L730.801 11.6193L735.342 1.95135L735.789 1L734.837 1.44049L727.426 4.86809L727.365 4.89715L727.316 4.94457L722.754 9.51623L722.71 9.56058L722.682 9.61565L719.833 15.3283L719.792 15.4094V21.2123V21.2107Z" fill="#C4C4C4" stroke="#9C9C9C" stroke-width="0.5"/>
<path d="M705.336 50.3308L711.052 44.6013L744.147 77.7654L740.113 81.8078L705.336 50.3308Z" fill="#C4C4C4" stroke="#737373" stroke-width="0.5"/>
<path d="M690.219 18.0049L690.222 18.008L701.053 32.8609L701.071 32.8854L701.091 32.9053L704.512 36.3329L704.551 36.3726L704.602 36.4002L711.811 40.2897V42.2474L709.607 46.1124L706.249 49.4773L703.12 51.5682L701.67 50.1136L698.846 45.0204L698.811 44.9592L698.757 44.9133L691.347 38.6286L691.326 38.6118L691.303 38.5965L682.182 32.8838L682.173 32.8777L665.682 23.1899L660.664 18.1609L659 10.9417L660.648 5.43553L663.93 2.69468L668.367 1.02753H673.937L677.224 2.1257L681.695 6.04427L690.219 18.0049Z" fill="#C1833A" stroke="#A8763C" stroke-width="0.5"/>
<path d="M744.623 77.3876L744.504 77.4075L744.417 77.4946L739.857 82.0648L739.77 82.152L739.75 82.2728L739.18 85.6989L739.156 85.838L739.229 85.9604L740.939 88.816L740.984 88.8894L741.055 88.9368L751.316 95.792L751.588 95.974L751.809 95.7323L758.079 88.8771L758.287 88.6508L758.11 88.3984L751.269 78.6861L751.223 78.6203L751.154 78.5791L748.303 76.866L748.183 76.7926L748.045 76.8171L744.623 77.3876V77.3876Z" fill="#C4C4C4" stroke="#818181" stroke-width="0.5"/>
</g>
<defs>
<filter id="filter0_di_186_2" x="120.297" y="12.6562" width="515.703" height="80.75" filterUnits="userSpaceOnUse" color-interpolation-filters="sRGB">
<feFlood flood-opacity="0" result="BackgroundImageFix"/>
<feColorMatrix in="SourceAlpha" type="matrix" values="0 0 0 0 0 0 0 0 0 0 0 0 0 0 0 0 0 0 127 0" result="hardAlpha"/>
<feOffset dx="-3" dy="7"/>
<feGaussianBlur stdDeviation="2"/>
<feComposite in2="hardAlpha" operator="out"/>
<feColorMatrix type="matrix" values="0 0 0 0 0 0 0 0 0 0 0 0 0 0 0 0 0 0 0.25 0"/>
<feBlend mode="normal" in2="BackgroundImageFix" result="effect1_dropShadow_186_2"/>
<feBlend mode="normal" in="SourceGraphic" in2="effect1_dropShadow_186_2" result="shape"/>
<feColorMatrix in="SourceAlpha" type="matrix" values="0 0 0 0 0 0 0 0 0 0 0 0 0 0 0 0 0 0 127 0" result="hardAlpha"/>
<feOffset dy="4"/>
<feGaussianBlur stdDeviation="2"/>
<feComposite in2="hardAlpha" operator="arithmetic" k2="-1" k3="1"/>
<feColorMatrix type="matrix" values="0 0 0 0 0 0 0 0 0 0 0 0 0 0 0 0 0 0 0.25 0"/>
<feBlend mode="normal" in2="shape" result="effect2_innerShadow_186_2"/>
</filter>
<filter id="filter1_di_186_2" x="0.741577" y="0.484772" width="107.865" height="106.859" filterUnits="userSpaceOnUse" color-interpolation-filters="sRGB">
<feFlood flood-opacity="0" result="BackgroundImageFix"/>
<feColorMatrix in="SourceAlpha" type="matrix" values="0 0 0 0 0 0 0 0 0 0 0 0 0 0 0 0 0 0 127 0" result="hardAlpha"/>
<feOffset dx="-3" dy="7"/>
<feGaussianBlur stdDeviation="2"/>
<feComposite in2="hardAlpha" operator="out"/>
<feColorMatrix type="matrix" values="0 0 0 0 0 0 0 0 0 0 0 0 0 0 0 0 0 0 0.25 0"/>
<feBlend mode="normal" in2="BackgroundImageFix" result="effect1_dropShadow_186_2"/>
<feBlend mode="normal" in="SourceGraphic" in2="effect1_dropShadow_186_2" result="shape"/>
<feColorMatrix in="SourceAlpha" type="matrix" values="0 0 0 0 0 0 0 0 0 0 0 0 0 0 0 0 0 0 127 0" result="hardAlpha"/>
<feOffset dy="4"/>
<feGaussianBlur stdDeviation="2"/>
<feComposite in2="hardAlpha" operator="arithmetic" k2="-1" k3="1"/>
<feColorMatrix type="matrix" values="0 0 0 0 0 0 0 0 0 0 0 0 0 0 0 0 0 0 0.25 0"/>
<feBlend mode="normal" in2="shape" result="effect2_innerShadow_186_2"/>
</filter>
<filter id="filter2_di_186_2" x="651.742" y="0.484772" width="107.865" height="106.859" filterUnits="userSpaceOnUse" color-interpolation-filters="sRGB">
<feFlood flood-opacity="0" result="BackgroundImageFix"/>
<feColorMatrix in="SourceAlpha" type="matrix" values="0 0 0 0 0 0 0 0 0 0 0 0 0 0 0 0 0 0 127 0" result="hardAlpha"/>
<feOffset dx="-3" dy="7"/>
<feGaussianBlur stdDeviation="2"/>
<feComposite in2="hardAlpha" operator="out"/>
<feColorMatrix type="matrix" values="0 0 0 0 0 0 0 0 0 0 0 0 0 0 0 0 0 0 0.25 0"/>
<feBlend mode="normal" in2="BackgroundImageFix" result="effect1_dropShadow_186_2"/>
<feBlend mode="normal" in="SourceGraphic" in2="effect1_dropShadow_186_2" result="shape"/>
<feColorMatrix in="SourceAlpha" type="matrix" values="0 0 0 0 0 0 0 0 0 0 0 0 0 0 0 0 0 0 127 0" result="hardAlpha"/>
<feOffset dy="4"/>
<feGaussianBlur stdDeviation="2"/>
<feComposite in2="hardAlpha" operator="arithmetic" k2="-1" k3="1"/>
<feColorMatrix type="matrix" values="0 0 0 0 0 0 0 0 0 0 0 0 0 0 0 0 0 0 0.25 0"/>
<feBlend mode="normal" in2="shape" result="effect2_innerShadow_186_2"/>
</filter>
</defs>
</svg>
